<svg xmlns="http://www.w3.org/2000/svg" xmlns:xlink="http://www.w3.org/1999/xlink" width="368.935" height="311.037" viewBox="0 0 368.935 311.037"><defs><linearGradient id="a" x1="-4.996" y1="-13.608" x2="-4.992" y2="-13.608" gradientUnits="objectBoundingBox"><stop offset="0" stop-color="#c5592d"/><stop offset="0.856" stop-color="#a14825"/><stop offset="1" stop-color="#a14825"/></linearGradient><linearGradient id="b" x1="-24.395" y1="-70.753" x2="-24.38" y2="-70.753" gradientUnits="objectBoundingBox"><stop offset="0" stop-color="#e7b2b6"/><stop offset="0.083" stop-color="#e7b2b6"/><stop offset="0.966" stop-color="#ca8d94"/><stop offset="1" stop-color="#c98c93"/></linearGradient><linearGradient id="c" x1="-43.66" y1="-70.083" x2="-43.646" y2="-70.083" xlink:href="#b"/></defs><g transform="translate(-88.689 -132.286)"><rect width="364.853" height="2.731" rx="1.227" transform="translate(92.771 440.592)" fill="#d0d6ec"/><path d="M116.794,419.173l3.789,15.958,5.676-.031.208-15.927Z" fill="#e7b2b6"/><path d="M123.461,433.725c-6.421-.278-6.667,6.252-6.667,6.252h13.127S129.881,433.447,123.461,433.725Z" fill="#d35c2b"/><path d="M166.054,419.853l9.262,15.278,5.676-.031-4.57-17.347Z" fill="#e7b2b6"/><path d="M178.193,433.725c-6.42-.278-6.666,6.252-6.666,6.252h13.127S184.613,433.447,178.193,433.725Z" fill="#d35c2b"/><path d="M127.812,205.915c-10.242,0-11.959,16.857-11.695,21.149.3,4.846-4.76,6.429-12.131,10.247-14.062,7.285-15.3,17.04-15.3,17.04q.163.1.345.222c.7-1.182,2.134-3.4,3.345-3.737a50.428,50.428,0,0,0-1.948,4.746c4.149,3.156,11.91,10.148,17.319,15.106a7.938,7.938,0,0,1,.368-3.072l.668,4.024c2.894,2.661,4.89,4.533,4.89,4.533a4.6,4.6,0,0,1,.645-2.127c-.02-.295-.042-.59-.065-.883a108.72,108.72,0,0,0-4.974-24.568c3.569-2.707,9.754-4.882,14.7-5.39a6.622,6.622,0,0,0,5.685,3.017l.221,0a7.255,7.255,0,0,0,6.3-3.4c2.6.07,4.494.163,5.858.252a32.966,32.966,0,0,0,1.94-7.479,31.575,31.575,0,0,1-1.375,7.518l.605.047c6.331-8.759,1.9-32.663-3.018-35.459a10.336,10.336,0,0,0-5.053-1.164c-.315,0-.616.01-.9.026a2.783,2.783,0,0,1,1.254-.595,1.515,1.515,0,0,0-.23-.015,10.619,10.619,0,0,0-3.061.874,12.246,12.246,0,0,0-4.4-.9Z" fill="url(#a)"/><path d="M136.563,247.479c-1.31-.609-.5-11.757-.5-11.757l-10.863-.539c-.771,3.651-.6,8.371-1.98,8.644-.045.01,2.082,4.229,5.334,5.118C132.012,249.889,136.611,247.5,136.563,247.479Z" fill="url(#b)"/><path d="M125.476,211.891s5.732-4.91,11.617.98C137.093,212.871,133.41,211.814,125.476,211.891Z" fill="#555ca5"/><path d="M122.032,231.276a45.81,45.81,0,0,1-2.163-7.773c-.527-2.962.982-13.944,12.018-12.363a15,15,0,0,1,6.218,2.351c2.4,1.618,5.854,5.112,1.988,14.7l-1.005,3.237Z" fill="#d35c2b"/><path d="M137.2,237.075c-3.069,2.523-6.9,5.9-14.061-1.418-1.4-1.433-1.147-3.454-1.016-6.376.154-3.458-.518-5.632.016-7.592.636-2.345,2.751-3.267,7-3.317,7.8-.093,11.591,1.949,10.782,5.757C138.118,232.628,140.322,234.509,137.2,237.075Z" fill="#e7b2b6"/><path d="M140.3,217.824c-1.185-1.314-5.661-.106-7.376.42h0c-2.342-3.944-9.34-.913-10.72,1.289a7.347,7.347,0,0,1-6.984,3.7s3.9,4.213,8.67,2.988c4.209-1.083,8.031-6.472,8.864-7.715,1.221.118,4.287.537,5.031,1.823.934,1.615.95,3.345,1.414,4.251a3.349,3.349,0,0,1,.3,1.872S141.763,219.45,140.3,217.824Z" fill="#d35c2b"/><path d="M130.44,425.413H115.215c-11.983-54.463-12.944-86.114-11.637-103.1.947-12.3,3.124-16.618,3.124-16.618l23.654-.284s.642,120,.084,120Z" fill="#555ca5"/><path d="M180.524,425.588H164.7s-20.2-41.417-34-77.859c-6.284-16.6-11.239-32.165-12.351-42.314h26.733s32.143,102.206,35.438,120.173Z" fill="#555ca5"/><path d="M164.7,425.588s-20.2-41.417-34-77.859c-.393-5.052-1.052-12.307,2.116-14.83C132.82,332.9,166.474,395.212,164.7,425.588Z" fill="#4f54a0"/><path d="M125.117,425.413h-9.9c-11.983-54.463-12.944-86.114-11.637-103.1C106.551,337.452,123.538,423.693,125.117,425.413Z" fill="#4f54a0"/><path d="M150.376,275.332q0,.777,0,1.559a278.967,278.967,0,0,1-2.83,36.337s-14.8.58-24.482-1.582c-.209-.047-.436-.1-.677-.16-4.828-1.188-16.072-4.831-16.072-4.831.286-.752.464-1.5.743-2.2,3.612-9.01,6.354-12.959,6.782-15.73a68.3,68.3,0,0,0,.416-15.567,108.72,108.72,0,0,0-4.974-24.568c3.569-2.707,9.625-4.868,14.574-5.376a6.866,6.866,0,0,0,6.035,3,6.576,6.576,0,0,0,5.926-3.4,79.9,79.9,0,0,1,9.455.573c3.086,6.227,4.479,15.3,4.932,24.848.112,2.35.164,4.726.172,7.1Z" fill="#f2d370"/><path d="M168.771,264.3s-17.054-20.259-23.5-20.786l1.1,15.481,20.236,17.843,29.469-20.023-2.98-2.229Z" fill="#e7b2b6"/><path d="M156.994,250.423s-6.263,10.255-6.323,13.067l-4.816-3.073-.582-17.03S147.991,243.623,156.994,250.423Z" fill="#f2d370"/><path d="M121.664,260.349c-1.436,0-3.183,5.42-3.311,5.881,0,0-1.75,2.82-4.1,6.933.161,2.049.253,4.15.253,6.268a61.388,61.388,0,0,1-.669,9.3c-.428,2.771-3.17,6.72-6.782,15.73,7.009-1.589,9.826-14.23,11.295-16.31,1.642-2.326,6-13.949,4.865-23.748-.347-3-.921-4.053-1.554-4.053Z" fill="#eec565"/><path d="M150.2,268.235c-1.054,5.966-11.289,36.541-27.817,43.251.241.06.468.113.677.16,6.3,1.407,14.768,1.653,19.914,1.653,2.762,0,4.568-.071,4.568-.071a278.967,278.967,0,0,0,2.83-36.337c0-.26,0-.521,0-.781s0-.519,0-.778h0c-.012-2.373-.065-4.75-.172-7.1Z" fill="#eec565"/><path d="M147.964,310.1c-3.5-4.493-7.529-2.474-7.529-2.474l-6.694-7.836c-6.052-7.167-14.063-16.9-14.372-18.544-.139-.743,1.578-36.234,1.578-36.234a52.965,52.965,0,0,0-10.124,3.62s-7.688,7.368-.255,38.729c0,0,9.891,8.877,18.087,15.737h0l0,0c3.279,2.745,6.285,5.164,8.278,6.565l1.357,1.076a7.392,7.392,0,0,0,5.719,1.956c2.411-.436,1.809-.1,3.528-.377S147.964,310.1,147.964,310.1Z" fill="#e7b2b6"/><path d="M106.583,261.315c-.015,1.013,8.622,1.252,13.95,3.906l3.323-22c-.021.009-9.66,2.892-14.574,5.375a27.318,27.318,0,0,0-2.7,12.721Z" fill="#f2d370"/><path d="M403.433,236.931c-6.434,4.062-13.4,56.118-13.4,56.118-5.73,2.439-17.052-.121-27.565-3.574.9-1.724,2.834-4.613,2.91-4.727-1.008.689-3.4,2.632-5.046,4.009-5.995-2.054-11.572-4.316-15.5-5.99.725-5.449,1.363-8.55,4.647-13.839-6.554,6.282-6.833,8.843-8.479,12.165-1.19-.533-1.857-.847-1.857-.847.142-1.283,2.909-20.275,20.3-29.077,12.66-6.41,15.454-22.852,21.13-33.36,6.83-12.646,16.576-11.274,16.576-11.274C413.239,205.538,415.71,229.182,403.433,236.931Z" fill="#555ca5"/><path d="M403.657,243.708c-1.309-.611-.78-9.066-.78-9.066l-10.863-.539c-.772,3.652-.577,7.613-1.953,7.887-.045.008,2.054,4.987,5.307,5.875C398.828,248.809,403.706,243.73,403.657,243.708Z" fill="url(#c)"/><path d="M403.379,234.271c-3.069,2.523-6.9,5.9-14.062-1.418-1.4-1.433-1.147-3.454-1.015-6.376.153-3.458-.518-5.632.015-7.592.637-2.345,2.752-3.268,7-3.318,7.8-.092,11.591,1.949,10.782,5.758C404.3,229.824,406.5,231.705,403.379,234.271Z" fill="#e7b2b6"/><path d="M406.714,244.366s6.292,1.215,7.81,2.082c4.613,2.636,16.634,25.685,19.352,34.087,0,0,4.366,1.033-21.925,27.38l-2.209-3.891s7.968-15.219,13.7-22.991c0,0-7.783-11.865-9.426-17.8S406.714,244.366,406.714,244.366Z" fill="#e7b2b6"/><path d="M366.495,222.21c-.41-.285-4.859-40.657-4.859-40.657a6.726,6.726,0,0,0,4-7.467s-.52-2.28-1.9-1.221-.727.852-2.7,2.3a7.392,7.392,0,0,0-2.514,5.5s-.153,2.084-.389,5.32l0,.014c-.748,10.317-2.314,32.321-2.314,36.058,0,4.911,17.626,28.866,17.626,28.866l7.471-10.7S366.9,222.495,366.495,222.21Z" fill="#e7b2b6"/><path d="M406.351,212.789c-1.962-2.332-6.456.49-8.339,1.844-1.108-.413-8.446-2.992-12.855-.693-4.779,2.49-3.442,16.688-3.442,16.688,0-1.743,4.857-6.726,9.216-9.964,2.955-2.194,5.221-4.158,6.375-5.2a14.765,14.765,0,0,0,5.457,4.154c3.362,1.351,4.234,12.109,4.234,12.109C409.76,227.9,408.865,215.777,406.351,212.789Z" fill="#555ca5"/><path d="M381.112,419.173l3.79,15.958,5.675-.031.209-15.927Z" fill="#e7b2b6"/><path d="M430.891,419.173l8.067,15.958,5.676-.031-2.617-15.927Z" fill="#e7b2b6"/><path d="M387.78,433.725c-6.421-.278-6.668,6.252-6.668,6.252H394.24S394.2,433.447,387.78,433.725Z" fill="#d35c2b"/><path d="M442.512,433.725c-6.42-.278-6.667,6.252-6.667,6.252h13.128S448.933,433.447,442.512,433.725Z" fill="#d35c2b"/><path d="M394.759,425.413H379.533c-11.982-54.463-12.944-86.114-11.636-103.1.946-12.3,3.081-16.9,3.081-16.9h23.7S395.317,425.413,394.759,425.413Z" fill="#555ca5"/><path d="M444.841,425.588H429.018s-20.2-41.417-33.995-77.859c-6.285-16.6-11.24-32.165-12.351-42.314h26.734S441.548,407.621,444.841,425.588Z" fill="#555ca5"/><path d="M429.018,425.588s-20.2-41.417-33.995-77.859c-.394-5.052-1.053-12.307,2.115-14.83C397.138,332.9,430.793,395.212,429.018,425.588Z" fill="#4f54a0"/><path d="M389.436,425.413h-9.9c-11.982-54.463-12.944-86.114-11.636-103.1C370.87,337.452,387.856,423.693,389.436,425.413Z" fill="#4f54a0"/><path d="M426.242,263.448s-8.075,7.438-8.915,8.718a5.966,5.966,0,0,0-1.1-.775,89.354,89.354,0,0,1-7.052,22.792c-3.268,7.285-.391,11.818-.391,11.818s-14.43,1.567-19.156,1.493c-4.753-.072-18.764-2.08-18.764-2.08.134-.306.268-.61.4-.91,2.133-4.889,3.679-8.762,4.745-11.985,3.009-9.087,2.2-13-.1-19.917-1.388-4.19-1.067-12.16-.614-17.66a13.638,13.638,0,0,0-3.449-4.745c.488-.164,1.682-2.005,2.979-4.24.379-.655.767-1.342,1.151-2.032,1.786-3.218,3.443-6.466,3.443-6.466s5.485,3.606,6.144,3.509A4.735,4.735,0,0,1,389.285,242a1.287,1.287,0,0,0,.775-.01A7.771,7.771,0,0,0,397.1,246.1a9.311,9.311,0,0,0,6.313-2.593c1.038.252,2,.521,2.894.8,0,0,6.854,1.029,8.647,2.167C418.61,248.784,426.242,263.448,426.242,263.448Z" fill="#d35c2b"/><path d="M409.742,304.024l-.579,1.052a7.952,7.952,0,0,0-10.012-.025s-2.09,1.809-.217,2.663,1.291.285,3.9,1.541,5.633,1.323,7.287.067l1.83-1.407Z" fill="#e7b2b6"/><path d="M373.892,304.53a12.068,12.068,0,0,1-2.631-.026c2.133-4.889,3.679-8.762,4.745-11.985,3.009-9.087,2.2-13-.1-19.917-1.388-4.19-1.067-12.16-.614-17.66a13.638,13.638,0,0,0-3.449-4.745c.488-.164,1.682-2.005,2.979-4.24,0,0,3.261,5.41,3.1,7.237s-1.311,13.617,1.938,18.349S384.726,303.518,373.892,304.53Z" fill="#c5592d"/><path d="M217.561,154.385l.326-4.011a3.342,3.342,0,0,0-.472-2.96,12.873,12.873,0,0,1-2.015-13.209s1.69-3.368,3.447-1.18.809,1.611,3.344,4.639,2.308,7.823,1.826,9.569L222.9,151.62Z" fill="#af7041"/><path d="M341.507,175.147l.94-3.714a3.186,3.186,0,0,0,.024-2.855,12.255,12.255,0,0,1,.193-12.721s2.117-2.9,3.422-.565.5,1.641,2.407,4.884.935,7.71.2,9.274l-1.745,3.943Z" fill="#af7041"/><path d="M255.825,430.375c-9.9-.428-10.282,9.644-10.282,9.644h20.246S265.727,429.947,255.825,430.375Z" fill="#221e50"/><path d="M299.588,430.375c-9.9-.428-10.281,9.644-10.281,9.644h20.246S309.491,429.947,299.588,430.375Z" fill="#221e50"/><path d="M285.459,212.96a.22.22,0,0,1-.213-.223c.074-5.7.074-10.85.074-10.85l-16.774-2.741a92.838,92.838,0,0,0-.542,13.66.2.2,0,0,1-.2.2c-.882.012,18.149-.028,17.65-.046Z" fill="#a05f32"/><path d="M266.4,194.309s-11.2-17.656,10.3-18.824c0,0,8.065.949,9.891-.877,0,0,6.256,9.507.414,19.7S266.4,194.309,266.4,194.309Z" fill="#2b295e"/><path d="M284.822,203.521c-1.631,1.283-6.409,2.557-7.791,2.706,0,0-7.087-1.58-8.375-2.358-2-1.209-1.867-3.657-1.968-7.06-.124-4.028-.529-7.192-.079-9.515.534-2.777,2.3-4.357,7.227-4.787,9.052-.785,12.823,1.481,12.981,4.517.041.814.079,1.592.105,2.327C287.284,198.816,286.537,202.172,284.822,203.521Z" fill="#af7041"/><path d="M291.392,211.213s16.268-7.555,35.657-14.152l15.209-26.786,5.716.776s-3.115,29.149-7,34.385c-9.147,12.327-38.21,30.827-38.21,30.827Z" fill="#f2d370"/><path d="M282.337,292.172s-.231,2.12-.589,5.447c-.523,4.855-1.319,12.281-2.068,19.448-.815,7.761-1.576,15.219-1.882,18.77-.1,1.157-.343,3.538-.694,6.814l-.013.115c-2.41,22.529-9.747,86.647-9.747,86.647s-18.2.88-22.054,0c-2.823-.642,2.746-76.617,5.925-117.178,1.157-14.795,2-24.878,2-24.878l29.123,4.815Z" fill="#333383"/><path d="M303.322,289.671s9.685,142.97,5.832,143.874-22.054,0-22.054,0-9.61-92.809-10.394-102.155-4.6-39.145-4.6-39.145Z" fill="#2b295e"/><path d="M303.343,271.28c2.929,23.729.955,26.264.955,26.264H252.026a.168.168,0,0,1-.283-.008c-.235-.285-.515-1.449-.4-5.551.121-4.521.717-12.612,2.373-27.035a15.5,15.5,0,0,0,.09-1.755c0-5.136-1.876-13.436-3.87-20.8-1.03-3.817-2.094-7.378-2.942-10.116-.126-.4-.243-.781-.357-1.144-9.277-7.823-25.489-36.233-25.489-36.233-1.938-5.579-3.311-13.012-4.274-20.329a76.082,76.082,0,0,1,.27-23.456l7.281-4.282c5.642,15.889,9.8,42.618,9.8,42.618,12.469,8.255,28.369,21.5,28.407,21.535l.1-.013.067-.01c1.623-.24,3.247-.445,5.175-.616,1.321,1.028,4.149,2.148,9.641,2.1a15.159,15.159,0,0,0,7.662-2.066,86.584,86.584,0,0,1,16.345,3.209l8.314,10.118s-7.457,40.519-6.588,47.561Z" fill="#f2d370"/><path d="M216.167,160.933c0,.109-.007.221-.009.333l.712,13.311c.963,7.317,2.336,14.75,4.274,20.329,0,0,16.212,28.41,25.489,36.233.109.351.226.721.346,1.108,0,.012.007.024.011.036.848,2.738,1.912,6.3,2.942,10.116h0c1.994,7.36,3.87,15.66,3.87,20.8h0a15.5,15.5,0,0,1-.09,1.755c-1.656,14.423-2.252,22.514-2.373,27.035l.4,5.551c3.944-.121,9.691-.426,11.684-1.178,3.145-1.186-4.682-30.476-5.12-34.423s-7.869-33.1-7.869-33.1h0a8.429,8.429,0,0,0-.681-2.412c-1.535-3.946-21.486-30.255-24.118-32.13-2.519-1.8-8.936-30.907-9.472-33.355Z" fill="#eec565"/><path d="M282.337,297.855v18.789a5.54,5.54,0,0,0-2.657,1.233,2.7,2.7,0,0,0-.836,1.477c-.438,2.256-1.74,24.864-1.74,24.864l-.013.116c-2.41,23.2-9.747,89.21-9.747,89.21s-18.2.9-22.054,0c-2.823-.661,2.746-78.883,5.925-120.642l.811-15.132,29.722.083Z" fill="#333383"/><path d="M254.346,306.629a13.925,13.925,0,0,0,12.318-6.72,14.534,14.534,0,0,1-12.63,6.245l-.008.473C254.133,306.629,254.241,306.629,254.346,306.629Z" fill="#221e50"/><path d="M245.739,421.589a380.036,380.036,0,0,0,6-38.224c.223-2.108.439-4.276.641-6.445.223-2.393.432-4.816.622-7.2a9.409,9.409,0,0,0-.354-2.661,9.093,9.093,0,0,1-.337-2.419c.648-9.065.8-17.352.936-24.661q.053-2.877.111-5.635c.381-16.623.662-26.046.671-26.139-.009.093-.886,9.492-1.266,26.138q-.063,2.763-.112,5.637c-.135,7.3-.289,15.58-.934,24.631a9.415,9.415,0,0,0,.349,2.583,9,9,0,0,1,.34,2.492c-.188,2.383-.4,4.8-.62,7.192-.2,2.167-.418,4.333-.641,6.44-1.463,13.771-3.194,27.12-5.575,38.285Z" fill="#2b295e"/><path d="M262.794,210.969h0l-.067.01c1.376,2.2,5.757,8.972,7.7,8.972a.668.668,0,0,0,.38-.11c1.761-1.173-5.928-6.6-8.01-8.872Z" fill="#eec565"/><path d="M266.9,213.047s5.059,5.26,5.772,5.479a.263.263,0,0,0,.074.009c.957,0,6.23-3.463,6.23-3.463a7.515,7.515,0,0,1-1.551.141c-3.946,0-10.175-2.025-10.525-2.166Z" fill="#eec565"/><path d="M329.412,436.841,136.5,367.954a12.51,12.51,0,0,1-7.574-15.989l33.725-94.446a12.509,12.509,0,0,1,15.988-7.574l192.913,68.886a12.51,12.51,0,0,1,7.576,15.988L345.4,429.267A12.511,12.511,0,0,1,329.412,436.841Z" fill="#d0d6ec"/><path d="M379.127,334.819,345.4,429.267a12.51,12.51,0,0,1-15.988,7.574L136.5,367.954a12.509,12.509,0,0,1-7.574-15.988l33.727-94.447a12.505,12.505,0,0,1,15.986-7.574l192.915,68.887A12.509,12.509,0,0,1,379.127,334.819Z" fill="#03945b"/><path d="M288.616,414.2l-29.395-2.422-5.18-1.85,2.749-33.37,34.691,2.858Z" fill="#dfe5f4"/><path d="M287.97,422.042l-19.889-7.1,20.336,1.676Z" fill="#dfe5f4"/><rect width="34.901" height="34.808" transform="matrix(0.082, -0.997, 0.997, 0.082, 291.576, 414.441)" fill="#dfe5f4"/><path d="M324.792,435.191l-33.927-12.115.511-6.216,34.691,2.856Z" fill="#dfe5f4"/><path d="M292.157,375.7l-7.717-23.63s-1.244-3.1-9.267-.763-15.4,6.9-14.072,9.005S293.129,382.113,292.157,375.7Z" fill="#dfe5f4"/><path d="M293.4,375.8l11.479-22.048s1.736-2.856,9.268.763,14.062,9.323,12.409,11.187S291.4,381.971,293.4,375.8Z" fill="#dfe5f4"/><path d="M291.189,378.012,275,372.8l.686,2.128-1.431,1.685Z" fill="#dfe5f4"/><path d="M294.969,378.323l16.819-2.488-1.024,1.988,1.135,1.9Z" fill="#dfe5f4"/><rect width="11.256" height="11.286" transform="matrix(0.998, -0.063, 0.063, 0.998, 333.057, 362.528)" fill="#f2d370"/><rect width="11.257" height="11.366" transform="matrix(0.998, -0.062, 0.062, 0.998, 333.811, 374.576)" fill="#f2d370"/><rect width="11.257" height="11.286" transform="translate(345.249 361.764) rotate(-3.582)" fill="#f2d370"/><rect width="11.256" height="11.367" transform="translate(346.004 373.811) rotate(-3.58)" fill="#f2d370"/><path d="M344.335,360.606l-3.573-7.2s-.543-.935-3,.188-4.6,2.925-4.083,3.538S344.944,362.611,344.335,360.606Z" fill="#f2d370"/><path d="M344.737,360.58l2.646-7.59s.422-.995,3-.188,4.935,2.327,4.492,3S344.382,362.647,344.737,360.58Z" fill="#f2d370"/><path d="M344.132,361.39l-5.422-.911.319.649-.38.605Z" fill="#f2d370"/><path d="M345.356,361.313l5.265-1.581-.234.683.451.554Z" fill="#f2d370"/><rect width="22.449" height="22.389" transform="translate(199.41 377.501) rotate(-60.451)" fill="#f2d370"/><path d="M218.117,389.9l-3.393,5.987-21.4-7.643,5.319-9.383Z" fill="#f2d370"/><rect width="22.449" height="22.39" transform="matrix(0.493, -0.87, 0.87, 0.493, 220.549, 389.485)" fill="#f2d370"/><path d="M239.258,401.881l-1.3,2.3-21.406-7.643,3.23-5.7Z" fill="#f2d370"/><path d="M231.355,367.028l1.88-15.878s.111-2.147-5.205-2.949-10.85-.135-10.646,1.454S230.189,371.033,231.355,367.028Z" fill="#f2d370"/><path d="M232.055,367.424l12.658-9.767s1.784-1.2,5.2,2.95,5.689,9.24,4.22,9.881S229.218,370.482,232.055,367.424Z" fill="#f2d370"/><path d="M230.166,368.115l-8.041-7.413-.176,1.428-1.289.6Z" fill="#f2d370"/><path d="M232.288,369.318l10.491,3.091-1.136.884.151,1.412Z" fill="#f2d370"/><path d="M189.632,253.921a5.357,5.357,0,0,1,4.607-1.059c2.491.748,3.856,3.34,3.61,4.005s-3.049.954-4.357,0S191.505,254.577,189.632,253.921Z" fill="#e7b2b6"/><path d="M189.75,272.455a1.209,1.209,0,0,1-.02.993l-1.614,3.936a5.009,5.009,0,0,1-.644,1.2,1.5,1.5,0,0,1-.743.52,2.977,2.977,0,0,1-1.15.046,12.347,12.347,0,0,1-1.963-.357,15.494,15.494,0,0,1-1.987-.648,8.939,8.939,0,0,1-3.554-2.485,6.54,6.54,0,0,1-1.508-3.564,9.714,9.714,0,0,1,3.177-7.774,6.58,6.58,0,0,1,3.551-1.5,8.5,8.5,0,0,1,4.178.677,7.838,7.838,0,0,1,4.045,3.357,1.634,1.634,0,0,1,.225.658,1.464,1.464,0,0,1-.127.654,1.538,1.538,0,0,1-.66.779.937.937,0,0,1-.851.087,1.4,1.4,0,0,1-.44-.275,3.667,3.667,0,0,1-.408-.473,7.583,7.583,0,0,0-1.247-1.385,5.57,5.57,0,0,0-1.463-.858q-4.116-1.689-6.079,3.094a5.853,5.853,0,0,0-.435,4.111,4.413,4.413,0,0,0,2.731,2.534,9.894,9.894,0,0,0,2.445.65l1.283-3.128-1.857-.761a1.439,1.439,0,0,1-.792-.656,1.265,1.265,0,0,1,.662-1.613,1.437,1.437,0,0,1,1.024.089l3.45,1.415A1.369,1.369,0,0,1,189.75,272.455Z" fill="#fff"/><path d="M190.667,281.282a1.681,1.681,0,0,1,.048-1.324l4.643-11.32a1.651,1.651,0,0,1,.887-.956,1.912,1.912,0,0,1,2.3.944,1.644,1.644,0,0,1-.04,1.3l-4.642,11.32a1.76,1.76,0,0,1-3.2.033Z" fill="#fff"/><path d="M197.119,283.917a1.663,1.663,0,0,1,.033-1.319l4.635-11.3a1.445,1.445,0,0,1,2.078-.869l6.94,2.847a1.876,1.876,0,0,1,1.005.766,1.257,1.257,0,0,1-.025,1.1,1.228,1.228,0,0,1-.744.779,1.886,1.886,0,0,1-1.254-.16l-5.307-2.178-1.341,3.27,4.9,2.011a1.884,1.884,0,0,1,1.005.766,1.26,1.26,0,0,1-.025,1.1,1.237,1.237,0,0,1-.744.779,1.887,1.887,0,0,1-1.254-.161l-4.9-2.011-1.863,4.539a1.708,1.708,0,0,1-.884.981,1.615,1.615,0,0,1-1.295-.036A1.665,1.665,0,0,1,197.119,283.917Z" fill="#fff"/><path d="M212.8,290.337a1.634,1.634,0,0,1,.031-1.309l4.187-10.209-3.269-1.342q-1.492-.612-.963-1.9.521-1.27,2.014-.658l9.686,3.973q1.493.612.972,1.883-.531,1.291-2.024.679l-3.268-1.34-4.188,10.209a1.649,1.649,0,0,1-.888.957,1.9,1.9,0,0,1-2.29-.939Z" fill="#fff"/><path d="M183.1,285.593a1.544,1.544,0,0,1,.855.1,1.806,1.806,0,0,1,.925.851,1.345,1.345,0,0,1,.078,1.187,1.516,1.516,0,0,1-.391.548L174.4,297.547a1.714,1.714,0,0,1-.959.443,2.147,2.147,0,0,1-1.937-.794,1.734,1.734,0,0,1-.373-.99l-.73-13.736a1.392,1.392,0,0,1,.1-.643,1.341,1.341,0,0,1,.918-.8,1.9,1.9,0,0,1,1.294.061,1.584,1.584,0,0,1,.691.53,1.422,1.422,0,0,1,.274.855l.445,11.215,8.191-7.672A1.439,1.439,0,0,1,183.1,285.593Z" fill="#fff"/><path d="M184.386,301.8a6.547,6.547,0,0,1-1.368-3.531,9.977,9.977,0,0,1,3.17-7.729,6.487,6.487,0,0,1,3.45-1.543A8.731,8.731,0,0,1,197,292.014a6.492,6.492,0,0,1,1.373,3.521,9.982,9.982,0,0,1-3.17,7.728,6.569,6.569,0,0,1-3.455,1.554,8.649,8.649,0,0,1-7.365-3.021Zm7.624-.138a7.485,7.485,0,0,0,2.969-7.21,3.691,3.691,0,0,0-2.3-2.39,3.653,3.653,0,0,0-3.3.093,7.553,7.553,0,0,0-2.949,7.219,4.038,4.038,0,0,0,5.58,2.288Z" fill="#fff"/><path d="M199.624,307.292a6.553,6.553,0,0,1,.286-5.152l2.83-6.9a1.575,1.575,0,0,1,2.191-.916,1.617,1.617,0,0,1,.947.883,1.677,1.677,0,0,1-.051,1.3l-2.889,7.043a4.123,4.123,0,0,0-.282,2.9,3.562,3.562,0,0,0,4.514,1.839,4.1,4.1,0,0,0,1.842-2.25L211.9,299a1.674,1.674,0,0,1,.877-.961,1.615,1.615,0,0,1,1.295.035,1.578,1.578,0,0,1,.915,2.192l-2.83,6.9a6.545,6.545,0,0,1-3.42,3.855,8.082,8.082,0,0,1-9.114-3.727Z" fill="#fff"/><path d="M216.113,314.821a6.434,6.434,0,0,1-1.378-3.535,9.993,9.993,0,0,1,3.174-7.738,6.461,6.461,0,0,1,3.46-1.54,8.594,8.594,0,0,1,8,3.941,1.645,1.645,0,0,1,.224.658,1.459,1.459,0,0,1-.127.656,1.517,1.517,0,0,1-.661.777.951.951,0,0,1-.869.08,1.72,1.72,0,0,1-.466-.273,2.123,2.123,0,0,1-.371-.448,7.379,7.379,0,0,0-1.182-1.369,4.969,4.969,0,0,0-1.377-.836,3.833,3.833,0,0,0-3.409.005,6.026,6.026,0,0,0-2.448,3.181q-1.97,4.8,1.925,6.4a4.6,4.6,0,0,0,1.507.347,9.526,9.526,0,0,0,1.864-.119,3.155,3.155,0,0,1,.607-.045,1.54,1.54,0,0,1,.495.119.957.957,0,0,1,.563.668,1.529,1.529,0,0,1-.076,1.018,1.436,1.436,0,0,1-.384.561,1.625,1.625,0,0,1-.607.3,8.593,8.593,0,0,1-8.465-2.812Z" fill="#fff"/><path d="M245.114,311.3a1.65,1.65,0,0,1-.04,1.3l-4.643,11.321a1.692,1.692,0,0,1-.892.967,1.632,1.632,0,0,1-1.308-.03,1.613,1.613,0,0,1-.945-.883,1.7,1.7,0,0,1,.057-1.32l1.855-4.519-6.559-2.692-1.854,4.521a1.683,1.683,0,0,1-.891.966,1.6,1.6,0,0,1-1.288-.022,1.65,1.65,0,0,1-.957-.887,1.689,1.689,0,0,1,.048-1.324l4.643-11.32a1.579,1.579,0,0,1,2.193-.916,1.613,1.613,0,0,1,.946.884,1.67,1.67,0,0,1-.051,1.3l-1.762,4.3,6.558,2.692,1.763-4.3a1.669,1.669,0,0,1,.878-.961,1.614,1.614,0,0,1,1.293.036A1.647,1.647,0,0,1,245.114,311.3Z" fill="#fff"/><path d="M243.665,326.5a1.588,1.588,0,0,1,.063-1.247l4.627-11.279a1.443,1.443,0,0,1,2.077-.869l7.143,2.93q1.492.612,1,1.822-.506,1.233-2,.62l-5.549-2.276-1.366,3.328,5.145,2.112q1.492.612.989,1.843-.5,1.211-1.99.6l-5.145-2.111-1.465,3.572,5.549,2.275q1.492.614.988,1.844-.5,1.21-1.99.6l-7.143-2.93A1.587,1.587,0,0,1,243.665,326.5Z" fill="#fff"/><path d="M267.983,335.6a1.231,1.231,0,0,1-.834.742,1.82,1.82,0,0,1-1.881-.56,1.641,1.641,0,0,1-.374-.812l-1.041-5.048a2.587,2.587,0,0,0-.416-1.055,2,2,0,0,0-.873-.63l-1.635-.67-1.672,4.076a1.707,1.707,0,0,1-.885.981,1.615,1.615,0,0,1-1.3-.036,1.58,1.58,0,0,1-.927-2.22l4.635-11.3a1.444,1.444,0,0,1,2.077-.869l5.064,2.077a6.141,6.141,0,0,1,3.333,2.652,4.285,4.285,0,0,1-.022,3.7,4.439,4.439,0,0,1-2.026,2.351,4.712,4.712,0,0,1-3.15.382,2.9,2.9,0,0,1,.886.917,4.4,4.4,0,0,1,.5,1.4l.589,2.929A1.67,1.67,0,0,1,267.983,335.6Zm-.959-8.869a2.3,2.3,0,0,0,1.221-2.976,3.52,3.52,0,0,0-1.767-1.267l-3.007-1.233-1.606,3.915,3.008,1.233A3.45,3.45,0,0,0,267.024,326.733Z" fill="#fff"/></g></svg>