<svg xmlns="http://www.w3.org/2000/svg" viewBox="0 0 96 79" width="96" height="79">
	<defs>
		<clipPath clipPathUnits="userSpaceOnUse" id="cp1">
			<path d="M-1 -13L103 -13L103 91L-1 91Z" />
		</clipPath>
	</defs>
	<style>
		tspan { white-space:pre }
		.shp0 { fill: #143499 } 
		.shp1 { fill: none;stroke: #ffffff;stroke-width: 2 } 
		.shp2 { fill: #ffffff;stroke: #143499;stroke-width: 4 } 
		.shp3 { fill: #fde851;stroke: #143499;stroke-width: 2 } 
		.shp4 { fill: #ffe84c;stroke: #143499;stroke-width: 4 } 
		.shp5 { fill: #dcdd41 } 
	</style>
	<g id="Page 1" clip-path="url(#cp1)">
		<path id="Path 1" class="shp0" d="M41.69 31.52C28.83 26.62 8.86 18.62 5.56 14.9C5.56 14.9 18.49 31.42 32.91 42.88C16.28 46.85 0.61 53.3 0.61 53.3C8.08 50.69 53.21 56.34 53.21 56.34L64.02 39.89C64.02 39.89 40.97 7.29 41.13 0.57C41.13 0.57 39.54 16.58 41.69 31.52ZM88.62 71.6L45.32 71.6C41.55 71.6 38.5 68.54 38.5 64.78L38.5 33.01C38.5 23.32 46.35 15.48 56.03 15.48L77.56 15.48C86.98 15.48 94.62 23.11 94.62 32.53L94.62 65.6C94.62 68.91 91.93 71.6 88.62 71.6Z" />
		<path id="Path 2" class="shp1" d="M88.62 71.6L45.32 71.6C41.55 71.6 38.5 68.54 38.5 64.78L38.5 33.01C38.5 23.32 46.35 15.48 56.03 15.48L77.56 15.48C86.98 15.48 94.62 23.11 94.62 32.53L94.62 65.6C94.62 68.91 91.93 71.6 88.62 71.6Z" />
		<path id="Path 3" class="shp2" d="M85.38 67.66L48.56 67.66C44.79 67.66 41.73 64.61 41.73 60.84L41.73 35.54C41.73 25.86 49.58 18.01 59.26 18.01L74.32 18.01C83.74 18.01 91.38 25.65 91.38 35.07L91.38 61.66C91.38 64.97 88.69 67.66 85.38 67.66Z" />
		<path id="Path 4" class="shp3" d="M82.83 18.26L49.58 18.26L49.58 9.3L82.83 9.3L82.83 18.26Z" />
		<path id="Path 5" class="shp4" d="M87.47 54.71L45.64 54.71L45.64 34.77L87.47 34.77L87.47 54.71Z" />
		<path id="Path 6" class="shp5" d="M36.5 71.6C36.5 73.48 32.02 75.01 26.5 75.01C20.97 75.01 16.5 73.48 16.5 71.6C16.5 69.72 20.97 68.19 26.5 68.19C32.02 68.19 36.5 69.72 36.5 71.6ZM36.5 75.01C36.5 76.89 32.02 78.42 26.5 78.42C20.97 78.42 16.5 76.89 16.5 75.01C16.5 73.13 20.97 71.6 26.5 71.6C32.02 71.6 36.5 73.13 36.5 75.01ZM16.5 71.6L16.5 75.01L36.5 75.01L36.5 71.6" />
		<path id="Path 7" class="shp0" d="M79.87 45.23C74.86 43.32 67.08 40.2 65.79 38.75C65.79 38.75 70.83 45.19 76.45 49.66C69.97 51.2 63.86 53.72 63.86 53.72C66.78 52.7 84.36 54.9 84.36 54.9L88.58 48.49C88.58 48.49 79.59 35.78 79.66 33.17C79.66 33.17 79.03 39.4 79.87 45.23Z" />
	</g>
</svg>